<?xml version="1.0" standalone="no"?><svg xmlns="http://www.w3.org/2000/svg" viewBox="0 0 1440 320"><path fill="#0099ff" fill-opacity="1" d="M0,224L30,224C60,224,120,224,180,218.7C240,213,300,203,360,213.3C420,224,480,256,540,229.3C600,203,660,117,720,96C780,75,840,117,900,149.3C960,181,1020,203,1080,197.3C1140,192,1200,160,1260,133.3C1320,107,1380,85,1410,74.7L1440,64L1440,320L1410,320C1380,320,1320,320,1260,320C1200,320,1140,320,1080,320C1020,320,960,320,900,320C840,320,780,320,720,320C660,320,600,320,540,320C480,320,420,320,360,320C300,320,240,320,180,320C120,320,60,320,30,320L0,320Z"></path></svg>